<?xml version="1.0" encoding="UTF-8" standalone="no"?>
<svg width="103px" height="28px" viewBox="0 0 103 28" version="1.1" xmlns="http://www.w3.org/2000/svg" xmlns:xlink="http://www.w3.org/1999/xlink">
    <!-- Generator: Sketch 39.1 (31720) - http://www.bohemiancoding.com/sketch -->
    <title>logo rodape</title>
    <desc>Created with Sketch.</desc>
    <defs>
        <polygon id="path-1" points="0.0227193132 2.0052826 2.22003714 2.0052826 2.22003714 0.0720832253 0.0227193132 0.0720832253 0.0227193132 2.0052826"></polygon>
        <polygon id="path-3" points="5.4055142e-21 0.0853983018 5.4055142e-21 1.65076396 2.01139433 1.65076396 2.01139433 0.0853983018 0 0.0853983018"></polygon>
    </defs>
    <g id="00-TELA-INICIAL" stroke="none" stroke-width="1" fill="none" fill-rule="evenodd">
        <g id="00-LOGIN-A" transform="translate(-473.000000, -292.000000)">
            <g id="logo-rodape" transform="translate(473.000000, 292.000000)">
                <g id="Group-3" transform="translate(85.887110, 3.421948)" fill="#FEFEFE">
                    <path d="M11.5748303,9.93811374 L11.5748303,9.93811374 C11.5715065,11.7554345 10.104778,13.2287825 8.29835674,13.2287825 C6.49060591,13.2287825 5.0253399,11.7554345 5.02281381,9.93811374 C5.0253399,8.1203919 6.49060591,6.64797973 8.29835674,6.64797973 L8.29835674,6.64370179 L11.5748303,6.64370179 L11.5748303,9.93811374 Z M14.5108134,1.81818974 C12.6973456,0.711674796 10.5768912,0.0535410455 8.29835674,0.0535410455 C6.02155061,0.0535410455 3.89883606,0.365161962 2.08483647,1.4707411 C1.54358814,1.79773585 1.08689739,2.32205041 0.748401132,2.93473109 C0.677404666,3.05598384 0.637120155,3.19875997 0.637120155,3.34942353 C0.637120155,3.79940895 0.995426288,4.16517249 1.4408161,4.17199046 L1.4408161,4.173461 L3.59716755,4.173461 C4.39926807,4.173461 5.11282244,3.78550566 5.56047244,3.18766407 C6.14665861,2.29277329 7.1543032,1.70174966 8.29835674,1.70174966 C10.10757,1.70174966 11.5748303,3.17790503 11.5748303,4.99629529 L8.29835674,4.99629529 C6.02155061,4.99629529 4.06024,5.50229493 2.34595456,6.76000818 C0.754251028,7.92721634 0.106375041,9.34428272 0.106375041,10.6941053 C0.106375041,12.2316223 0.800119531,13.3409446 2.37400747,14.1549557 C4.86553138,15.4442187 9.62841037,14.9876827 11.5770905,13.2329267 C12.098529,14.0123132 13.7142969,14.8791301 14.8523675,14.881269 L15.671353,14.881269 C16.124454,14.881269 16.4902055,14.5116286 16.4902055,14.0562958 L16.4902055,9.59026405 L16.4902055,8.29137566 L16.4902055,5.34414498 C16.4902055,3.84913996 15.6994059,2.53848725 14.5108134,1.81818974 L14.5108134,1.81818974 Z" id="Fill-1"></path>
                </g>
                <path d="M64.1809379,8.13306529 L64.1809379,8.13306529 C64.1824003,6.31547714 65.648464,4.84279759 67.4572785,4.84279759 C69.2642316,4.84279759 70.7308271,6.31547714 70.7342839,8.13306529 C70.7308271,9.95078712 69.2642316,11.4248035 67.4572785,11.4248035 L67.4572785,11.4289478 L64.1809379,11.4289478 L64.1809379,8.13306529 Z M74.301258,13.8983865 C74.2932809,13.8983865 74.2841072,13.8989212 74.2751994,13.8989212 L74.2751994,13.8983865 L72.1567393,13.8983865 C71.3549047,13.8983865 70.6440094,14.2840691 70.1947639,14.8833813 C69.6075141,15.7782721 68.6022627,16.3692957 67.4572785,16.3692957 C65.6472675,16.3692957 64.1809379,14.8940761 64.1809379,13.0759532 L67.4572785,13.0759532 C69.7343505,13.0759532 71.8549378,12.4164826 73.6694692,11.3114382 C74.7624691,10.6467539 75.6483295,9.48114994 75.6483295,8.13306529 C75.6483295,6.78471326 74.7624691,5.61870827 73.6694692,4.9542913 C71.8549378,3.84871216 69.7343505,3.19124684 67.4572785,3.19124684 C65.1779463,3.19124684 63.0584226,3.84871216 61.2424287,4.9542913 C60.1504924,5.61870827 59.3910696,6.78471326 59.2801874,8.13306529 C59.2700831,8.24723271 59.264632,8.36434121 59.264632,8.47890969 L59.264632,12.7271677 C59.264632,14.2224401 60.0584895,15.5332265 61.2424287,16.2515187 C63.0584226,17.3593705 65.1779463,18.0153653 67.4572785,18.0153653 C69.7343505,18.0153653 71.8549378,17.7066855 73.6694692,16.6017748 C74.1987519,16.2801274 74.646136,15.7726573 74.9831698,15.1773557 C75.0707852,15.0484829 75.12144,14.8926056 75.12144,14.7217555 C75.12144,14.2670911 74.7536943,13.8983865 74.301258,13.8983865 L74.301258,13.8983865 Z" id="Fill-4" fill="#FEFEFE"></path>
                <path d="M85.4784549,3.19120673 C83.8763811,3.19120673 82.386386,3.50496662 80.9923824,4.13021373 C80.4448853,4.38983099 79.544932,4.7134836 78.9255078,4.7134836 L77.2862073,4.7134836 L77.2862073,8.47886959 L77.2862073,8.76602606 L77.2862073,8.76883345 L77.2862073,10.0657166 L77.2862073,11.4290414 L77.2862073,12.7272613 L77.2862073,13.0121451 L77.2862073,18.0153252 L78.9255078,18.0153252 L79.1706716,18.0153252 L80.5636116,18.0153252 L80.9552887,18.0153252 L81.3824641,18.0153252 C81.8349004,18.0153252 82.2021143,17.6475564 82.2021143,17.1940952 L82.2021143,16.3693893 L82.2021143,14.0524857 L82.2021143,12.7272613 L82.2021143,11.7132567 L82.2021143,8.76883345 L82.2021143,8.41817637 L82.2021143,8.13182201 C82.2021143,6.31343175 83.6687098,4.83888061 85.4767266,4.83888061 L85.4784549,4.83888061 C85.9307583,4.83888061 86.2975733,4.46977492 86.2975733,4.0133726 C86.2975733,3.55951031 85.9307583,3.19120673 85.4784549,3.19120673" id="Fill-6" fill="#FEFEFE"></path>
                <path d="M52.7108074,8.41818974 L52.7108074,8.76884682 L52.7108074,11.7132701 L52.7108074,12.727141 L52.7108074,13.0759265 C52.7108074,14.8940494 51.2440789,16.3694026 49.4344667,16.3694026 C47.6245887,16.3694026 46.1586579,14.8940494 46.1586579,13.0759265 L46.1586579,8.13303855 C46.1621147,6.3154504 47.6265829,4.84277085 49.4344667,4.84277085 C51.2430153,4.84277085 52.7081483,6.3154504 52.7108074,8.13303855 L52.7108074,8.41818974 Z M56.80733,4.71349697 L55.987148,4.71349697 C55.636819,4.71349697 55.1990075,4.61109387 54.7830001,4.4752694 C53.6041131,3.87742781 52.3134133,3.46848384 50.9511852,3.28921158 C50.8973396,3.28225993 50.8426963,3.27664514 50.7900472,3.26942612 C50.7538842,3.26541556 50.7174553,3.26260816 50.6830207,3.25685969 C50.6270478,3.25057647 50.5749306,3.24723433 50.5206861,3.24148585 C50.4964888,3.23881214 50.4696324,3.23747529 50.4450363,3.23466789 C50.3550276,3.22758256 50.2620941,3.22049723 50.1687616,3.21354558 C50.134327,3.21207504 50.1014878,3.21006976 50.0679839,3.20793079 C50.0282312,3.20659394 49.9876808,3.20445497 49.9479281,3.202316 C49.895279,3.2004444 49.842497,3.19763701 49.7909115,3.19670121 C49.7592689,3.19549804 49.7260309,3.19469593 49.6941223,3.19469593 C49.6086341,3.1912201 49.5206197,3.1912201 49.4344667,3.1912201 C47.156597,3.1912201 45.0372062,3.84868543 43.2214783,4.95426457 C42.0352789,5.67549788 41.2432828,6.98628427 41.2432828,8.47888296 L41.2432828,12.727141 C41.2432828,14.2210765 42.0352789,15.5331998 43.2214783,16.251492 C45.0372062,17.3593438 47.156597,18.0153386 49.4344667,18.0153386 C50.5726704,18.0153386 51.6716531,17.9390042 52.7108074,17.7233694 L52.7120039,19.6636809 C52.7120039,21.483408 51.2463391,22.9587613 49.436461,22.9587613 L49.4352644,22.9587613 C48.9829611,22.9587613 48.616412,23.3275996 48.616412,23.7829324 C48.616412,24.2365273 48.9829611,24.6069699 49.4352644,24.6069699 C51.7120706,24.6069699 53.832392,23.9483014 55.6491836,22.843257 C56.7397903,22.1771021 57.4977507,21.0123003 57.6114248,19.6636809 L57.6257837,19.6636809 L57.6257837,18.0153386 L57.6257837,13.0121585 L57.6257837,12.727141 L57.6257837,11.428921 L57.6257837,10.0657299 L57.6257837,8.76884682 L57.6257837,8.76603943 L57.6257837,8.47888296 L57.6257837,5.53753443 C57.6257837,5.08327108 57.2592345,4.71349697 56.80733,4.71349697 L56.80733,4.71349697 Z" id="Fill-8" fill="#FEFEFE"></path>
                <path d="M22.9817952,11.1326338 C23.0509304,10.1361421 21.8296316,9.6655691 21.0211494,9.6655691 C20.2532176,9.6655691 19.1333613,10.0830689 19.1812241,11.025017 C19.2305494,11.9556018 20.3623713,12.3773796 21.1450608,12.3773796 C21.8858704,12.3773796 22.921302,12.0054665 22.9817952,11.1326338" id="Fill-10" fill="#FEFEFE"></path>
                <path d="M17.5595133,14.5047973 C18.3706546,14.5580041 19.4544808,14.2072133 19.6697303,13.3145952 C19.9344381,12.2214488 18.6311079,11.622003 17.7487042,11.622003 C16.9795759,11.622003 15.9864231,11.9980603 15.8017525,12.8422843 C15.5814507,13.8514762 16.7259031,14.4495852 17.5595133,14.5047973" id="Fill-12" fill="#FEFEFE"></path>
                <path d="M18.1613745,9.9823369 C18.8783857,10.0203036 19.88962,9.74557987 20.0996844,8.95229007 C20.3662535,7.94416767 19.0496281,7.46543987 18.2890086,7.46543987 C17.6218546,7.46543987 16.736526,7.73682144 16.5065187,8.4484294 C16.1940811,9.41430718 17.4087322,9.94410285 18.1613745,9.9823369" id="Fill-14" fill="#FEFEFE"></path>
                <path d="M14.9225397,11.964131 C15.6831591,11.964131 16.7358745,11.5943569 16.8688267,10.7268716 C17.0195945,9.74561998 15.8284759,9.28547446 15.052434,9.28547446 C14.3383478,9.28547446 13.431348,9.59575852 13.1614551,10.3315636 C12.7728359,11.3910212 14.0922533,11.964131 14.9225397,11.964131" id="Fill-16" fill="#FEFEFE"></path>
                <path d="M27.0770681,9.99494345 C26.9696428,9.12946348 25.8854177,8.74792504 25.1432786,8.74792504 C24.4932754,8.74792504 23.5967788,9.04270158 23.4974636,9.79722258 C23.3805986,10.7147062 24.5243862,11.2047973 25.2525653,11.2566673 C25.9843341,11.3067993 27.1949967,10.9537359 27.0770681,9.99494345" id="Fill-18" fill="#FEFEFE"></path>
                <path d="M26.2576174,14.3448827 C26.4090499,13.2613616 25.1053208,12.6714075 24.2221194,12.6714075 C23.3885093,12.6714075 22.2429932,13.2248655 22.471804,14.2361964 C22.6465031,15.0058238 23.4835701,15.4266658 24.2031073,15.5070108 C24.9970977,15.5960453 26.1267924,15.2757349 26.2576174,14.3448827" id="Fill-20" fill="#FEFEFE"></path>
                <path d="M20.4578975,6.54966741 C20.2131325,7.42798119 21.3773948,7.88759196 22.038566,7.93144081 C22.6860431,7.9748886 23.7516548,7.73425468 23.8298307,6.92893319 C23.9149201,6.04299934 22.7321775,5.67081888 22.0547861,5.67081888 C21.4671375,5.67081888 20.6379147,5.89808425 20.4578975,6.54966741" id="Fill-22" fill="#FEFEFE"></path>
                <path d="M19.4151934,18.0503375 C20.2613011,18.0182529 21.3048428,17.4761582 21.2649571,16.4943718 C21.2245396,15.5061686 20.130742,14.9914794 19.2642927,14.9914794 C18.3634087,14.9914794 17.1679026,15.6005505 17.3259828,16.6704357 C17.4679757,17.6265544 18.5583166,18.0817535 19.4151934,18.0503375" id="Fill-24" fill="#FEFEFE"></path>
                <path d="M14.0171353,7.8322729 C14.0790911,7.00649752 13.0428617,6.67509115 12.397113,6.67509115 C11.7077559,6.67509115 10.6623529,7.00542804 10.5566559,7.81943909 C10.4475022,8.67007997 11.5201604,9.02140548 12.1762794,9.02140548 C12.8702898,9.02140548 13.9526535,8.67221894 14.0171353,7.8322729" id="Fill-26" fill="#FEFEFE"></path>
                <path d="M15.2771232,5.95506101 C15.2325842,6.76987417 16.3047106,7.08363406 16.9329097,7.08363406 C17.5690858,7.08363406 18.6329692,6.77455317 18.6311079,5.96762745 C18.6304431,5.17647662 17.5934161,4.87969479 16.9702692,4.87969479 C16.3403418,4.87969479 15.3190031,5.17473871 15.2771232,5.95506101" id="Fill-28" fill="#FEFEFE"></path>
                <path d="M12.3932042,11.7664636 C12.6153673,10.8088743 11.4884646,10.3324191 10.7253191,10.3324191 C9.97693122,10.3324191 9.00877343,10.6932363 8.77265035,11.4871945 C8.47816127,12.474462 9.64415191,12.9799269 10.4255119,12.9799269 C11.186929,12.9799269 12.2005565,12.6013296 12.3932042,11.7664636" id="Fill-30" fill="#FEFEFE"></path>
                <path d="M13.2296064,16.8962572 C13.9845089,16.8962572 14.846039,16.5489423 15.1728355,15.818752 C15.6779208,14.6895105 14.3910766,13.9312464 13.4323585,13.9312464 C12.5176474,13.9312464 11.2191035,14.5603703 11.401248,15.6706285 C11.5384546,16.509505 12.4709812,16.8962572 13.2296064,16.8962572" id="Fill-32" fill="#FEFEFE"></path>
                <path d="M28.6694497,20.0280808 C29.3015044,19.9779488 29.9771674,19.5186054 29.8638921,18.8044574 C29.7414432,18.0361668 28.8792483,17.6023573 28.1727404,17.6023573 C27.5102396,17.6023573 26.7275501,18.028413 26.8254029,18.8001795 C26.9314988,19.6410613 27.9142813,20.0875709 28.6694497,20.0280808" id="Fill-34" fill="#FEFEFE"></path>
                <path d="M25.8853778,4.71429908 C25.7718367,5.29690052 26.5421616,5.60491193 26.9842276,5.66293144 C27.4479648,5.72282255 28.4471005,5.57055475 28.3312991,4.88127228 C28.2347759,4.31096991 27.4628555,4.0970731 26.9809038,4.0970731 C26.5803189,4.0970731 25.9772478,4.24519664 25.8853778,4.71429908" id="Fill-36" fill="#FEFEFE"></path>
                <path d="M31.8818005,12.2038826 C32.414141,12.2038826 33.1857955,11.8895879 33.0347618,11.2207593 C32.886919,10.5659677 32.0650086,10.2575553 31.4711112,10.2575553 C30.993281,10.2575553 30.3041899,10.4920396 30.3041899,11.0749084 C30.2907617,11.8302316 31.2676943,12.2038826 31.8818005,12.2038826" id="Fill-38" fill="#FEFEFE"></path>
                <path d="M18.3120492,3.13650263 C18.7655491,3.19412108 19.5322844,3.08850953 19.691827,2.56125389 C19.8784919,1.94228999 18.9607229,1.70085397 18.5336805,1.70085397 C18.137483,1.70085397 17.5419902,1.83507422 17.3929508,2.26754683 C17.2058871,2.8000162 17.9141234,3.08436528 18.3120492,3.13650263" id="Fill-40" fill="#FEFEFE"></path>
                <path d="M17.3182184,23.5006421 C18.070063,23.5006421 18.9277375,22.989295 18.9226853,22.1520227 C18.9181649,21.3315947 18.081098,20.8370921 17.3429475,20.8370921 C16.6635618,20.8370921 15.9163706,21.2385496 15.7652039,21.9510934 C15.5722903,22.872855 16.5065453,23.5006421 17.3182184,23.5006421" id="Fill-42" fill="#FEFEFE"></path>
                <path d="M8.38977466,18.061567 C8.49706707,17.3042386 7.72168994,16.8845998 7.07155376,16.8845998 C6.41862559,16.8845998 5.66850938,17.2345885 5.43092383,17.8845674 C5.12593152,18.7194334 5.97070969,19.2656724 6.69755927,19.2656724 C7.40193994,19.2656724 8.2798232,18.8349377 8.38977466,18.061567" id="Fill-44" fill="#FEFEFE"></path>
                <path d="M5.87172679,10.4749814 C6.10598854,9.78529784 5.29803812,9.44493453 4.75572617,9.44493453 C4.21155288,9.44493453 3.56474051,9.6767452 3.29006131,10.1822101 C2.9336165,10.8456913 3.64783563,11.2926019 4.21939706,11.3345792 C4.82366473,11.3777596 5.65581245,11.1119928 5.87172679,10.4749814" id="Fill-46" fill="#FEFEFE"></path>
                <path d="M9.4220287,5.16515345 C9.91182454,5.23132778 10.5352373,5.10432655 10.855918,4.6952489 C11.3769576,4.02267711 10.4001579,3.62603221 9.88323982,3.62603221 C9.44143972,3.62603221 8.87958379,3.77776526 8.63734492,4.18563975 C8.30948483,4.73375032 8.96759814,5.10526235 9.4220287,5.16515345" id="Fill-48" fill="#FEFEFE"></path>
                <path d="M25.7015847,7.65524655 C25.8765498,8.31672244 26.7362186,8.58997561 27.3360989,8.58997561 C27.9230828,8.58997561 28.9059982,8.24025433 28.6622969,7.4647447 C28.4607414,6.82532692 27.6329811,6.56183279 27.0366906,6.56183279 C26.459811,6.56183279 25.5000292,6.89644761 25.7015847,7.65524655" id="Fill-50" fill="#FEFEFE"></path>
                <path d="M21.1598052,5.19519259 C21.6993252,5.19519259 22.7782321,4.86378622 22.48946,4.1020462 C22.2859102,3.56529889 21.5657082,3.38214974 21.0576979,3.38214974 C20.5558035,3.38214974 19.6686135,3.61355936 19.6890882,4.2699552 C19.7010539,4.95054811 20.6285283,5.19519259 21.1598052,5.19519259" id="Fill-52" fill="#FEFEFE"></path>
                <path d="M23.4947115,19.9164534 C24.3341715,19.9164534 25.3572386,19.3243603 25.1442492,18.3461835 C24.9670239,17.5297661 24.0584287,17.094085 23.2924912,17.094085 C22.536658,17.094085 21.6214152,17.5567706 21.6214152,18.4195768 C21.6214152,19.3674071 22.6641592,19.9164534 23.4947115,19.9164534" id="Fill-54" fill="#FEFEFE"></path>
                <path d="M26.9915267,13.2803584 C27.0237011,13.6680463 27.2846863,13.9862178 27.5951296,14.1969062 C27.8170268,14.349575 28.0706996,14.4551866 28.3327483,14.5130724 C28.4855104,14.5479643 28.6897249,14.5218957 28.8323826,14.5698888 C29.5519198,14.5698888 30.5259275,14.093701 30.2561675,13.2167241 C30.0306806,12.4859991 29.1441555,12.1389515 28.4470872,12.1389515 C27.8037316,12.1389515 26.9262472,12.502175 26.9915267,13.2803584" id="Fill-56" fill="#FEFEFE"></path>
                <path d="M15.9333751,18.8500976 C15.8631764,18.0118895 14.9741251,17.5828927 14.2258703,17.5828927 C13.4383945,17.5828927 12.4873875,18.0570752 12.3773031,18.923892 C12.2544553,19.8760002 13.2466774,20.4428268 14.0716457,20.4428268 C14.9368985,20.4428268 16.0184645,19.8519368 15.9333751,18.8500976" id="Fill-58" fill="#FEFEFE"></path>
                <path d="M8.02109825,9.50445132 C8.6665811,9.50445132 9.72421571,9.15031841 9.72168962,8.34486324 C9.72022715,7.67041985 8.89579066,7.41802162 8.35241509,7.41802162 C7.72594441,7.41802162 6.85470875,7.71052551 6.67854711,8.40020904 C6.48137902,9.16301854 7.44062902,9.50445132 8.02109825,9.50445132" id="Fill-60" fill="#FEFEFE"></path>
                <path d="M13.628915,5.53129132 C14.1850539,5.53129132 15.3021182,5.20229129 15.1086728,4.42504375 C14.9713332,3.87252155 14.245946,3.69766091 13.7627978,3.69766091 C13.2324516,3.69766091 12.3344925,3.93628954 12.2709414,4.59455697 C12.194095,5.280631 13.1163843,5.53129132 13.628915,5.53129132" id="Fill-62" fill="#FEFEFE"></path>
                <path d="M6.17775612,14.3412197 C5.97713128,15.2071007 6.92508034,15.6723263 7.64062899,15.6723263 C8.4144107,15.6723263 9.51498886,15.1927964 9.51605248,14.2759812 C9.51605248,13.5096958 8.66688689,13.1623809 8.02113814,13.1623809 C7.28671028,13.1623809 6.36907432,13.5546142 6.17775612,14.3412197" id="Fill-64" fill="#FEFEFE"></path>
                <path d="M21.5026357,0.882524874 C21.7657481,0.898968191 22.1966461,0.83145701 22.2794753,0.529060393 C22.3845075,0.143110335 21.788217,6.68427535e-05 21.5169946,6.68427535e-05 C21.2629229,6.68427535e-05 20.7970585,0.1009994 20.803972,0.431737344 C20.8106196,0.750710964 21.2498936,0.867685782 21.5026357,0.882524874" id="Fill-66" fill="#FEFEFE"></path>
                <path d="M36.533106,14.6239913 C36.9542985,14.5921741 37.3769535,14.2482013 37.1276682,13.7955422 C36.9270433,13.4308481 36.4684912,13.2403463 36.0676404,13.2403463 C35.6941777,13.2403463 35.2074398,13.467879 35.323507,13.9234792 C35.4464878,14.4178482 36.0778777,14.6550063 36.533106,14.6239913" id="Fill-68" fill="#FEFEFE"></path>
                <path d="M31.9748803,5.31248825 C32.2511549,5.31248825 32.7470666,5.17292058 32.6550637,4.79405586 C32.5638585,4.42080592 32.0626287,4.27843086 31.728387,4.27843086 C31.4493203,4.27843086 30.9675016,4.41572587 31.0482036,4.78857475 C31.1289056,5.16703842 31.6414362,5.31248825 31.9748803,5.31248825" id="Fill-70" fill="#FEFEFE"></path>
                <path d="M29.2733318,24.7770446 C29.8031463,24.8206261 30.4062174,24.4741132 30.3144804,23.8633041 C30.2295239,23.3057019 29.6385515,22.9553122 29.1133904,22.9553122 C28.7065567,22.9553122 28.2700747,23.1813744 28.1867136,23.6123764 C28.0616056,24.2449763 28.7137361,24.7297199 29.2733318,24.7770446" id="Fill-72" fill="#FEFEFE"></path>
                <g id="Group-76" transform="translate(11.699792, 25.079000)">
                    <mask id="mask-2" fill="white">
                        <use xlink:href="#path-1"></use>
                    </mask>
                    <g id="Clip-75"></g>
                    <path d="M1.18471031,0.0720832253 C0.609958024,0.0720832253 -0.0080037214,0.51378014 0.0239048025,1.13902726 C0.0542179001,1.71908867 0.63468713,2.04701922 1.16490044,2.0010314 C1.6741073,1.95691519 2.18770158,1.57818415 2.21854648,1.03288096 C2.25205043,0.455493259 1.71505657,0.0720832253 1.18471031,0.0720832253" id="Fill-74" fill="#FEFEFE" mask="url(#mask-2)"></path>
                </g>
                <path d="M9.84276918,1.97387988 C10.160126,2.01558976 10.6422107,1.93364054 10.7904523,1.6083837 C10.9651515,1.22390418 10.39944,1.06160998 10.1254255,1.06160998 C9.44018997,1.06160998 8.87859995,1.85409766 9.84276918,1.97387988" id="Fill-77" fill="#FEFEFE"></path>
                <path d="M1.26638284,8.52139495 C1.63731943,8.52139495 2.16447483,8.34720273 2.27070362,7.94414093 C2.37653356,7.53813804 1.88580706,7.37143222 1.57842161,7.37143222 C1.21001111,7.37143222 0.692295311,7.54268335 0.579020051,7.93852614 C0.460692609,8.34693536 0.953014541,8.52139495 1.26638284,8.52139495" id="Fill-79" fill="#FEFEFE"></path>
                <g id="Group-83" transform="translate(0.000000, 17.325241)">
                    <mask id="mask-4" fill="white">
                        <use xlink:href="#path-3"></use>
                    </mask>
                    <g id="Clip-82"></g>
                    <path d="M1.19522683,0.0853983018 C0.695991382,0.0853983018 0.00490593554,0.43030691 -1.32952182e-05,1.00903147 C-0.0040018607,1.53053863 0.593219344,1.70192345 1.01294939,1.63802178 C1.38481664,1.58227492 1.77290406,1.36690757 1.94188629,1.0161168 C2.20047828,0.478032635 1.68980895,0.0853983018 1.19522683,0.0853983018" id="Fill-81" fill="#FEFEFE" mask="url(#mask-4)"></path>
                </g>
                <path d="M31.8702469,17.3675521 C32.097994,17.9949382 32.8910538,18.2980032 33.5122064,18.1970707 C34.1154104,18.1008171 34.5314178,17.5402738 34.1797593,16.9663619 C33.9102652,16.5265366 33.3615716,16.2913838 32.8622032,16.2913838 C32.2846589,16.2913838 31.6331932,16.71637 31.8702469,17.3675521" id="Fill-84" fill="#FEFEFE"></path>
                <path d="M25.249893,2.96613382 C25.605806,2.96613382 26.3450201,2.75076646 26.1124868,2.2467721 C25.947759,1.88755915 25.4588938,1.76777693 25.1004547,1.76777693 C24.7757855,1.76777693 24.1854778,1.90560669 24.2052877,2.33553928 C24.221109,2.80143327 24.8789564,2.96613382 25.249893,2.96613382" id="Fill-86" fill="#FEFEFE"></path>
                <path d="M31.7994233,8.14638036 C31.886507,8.68352873 32.5924831,8.91640888 33.0547578,8.91640888 C33.6334987,8.91640888 34.3301681,8.4108103 33.7385309,7.83903738 C33.468638,7.5778159 33.0696485,7.45562735 32.7017698,7.45562735 C32.3192663,7.45562735 31.7147328,7.65241242 31.7994233,8.14638036" id="Fill-88" fill="#FEFEFE"></path>
                <path d="M8.4633238,21.1593142 C7.72158358,21.1586458 6.74504979,21.8137048 7.03634803,22.6686236 C7.19828378,23.1452124 7.70895312,23.369002 8.17800842,23.369002 C8.81697661,23.369002 9.55167037,22.9426789 9.63330301,22.2539312 C9.71227661,21.5794878 9.06692671,21.1622553 8.4633238,21.1593142" id="Fill-90" fill="#FEFEFE"></path>
                <path d="M22.8673899,25.263486 C23.5563481,25.2051992 24.1907959,24.6022775 23.9686328,23.8704831 C23.7926041,23.290288 23.1734458,22.9504594 22.5959015,22.9504594 C21.7887488,22.9504594 21.0053946,23.6925476 21.4273848,24.5263441 C21.6914278,25.0466481 22.3050021,25.3113454 22.8673899,25.263486" id="Fill-92" fill="#FEFEFE"></path>
                <path d="M2.05883103,12.7898662 C1.5397857,12.7898662 0.900152753,13.0545635 0.706707328,13.5782097 C0.459815124,14.2489099 1.23372978,14.5566539 1.75317396,14.5190883 C2.2827225,14.4815226 3.05756782,14.1164275 3.03602957,13.4802182 C3.01914464,12.9854481 2.4712487,12.7898662 2.05883103,12.7898662" id="Fill-94" fill="#FEFEFE"></path>
                <path d="M14.7129273,1.98563083 C15.0655165,1.98563083 15.6824146,1.84633054 15.7052824,1.40302939 C15.7272195,0.966412529 15.10846,0.828315401 14.7868487,0.828315401 C14.449549,0.828315401 13.8617674,0.960396681 13.8022048,1.37709441 C13.7361276,1.83015459 14.385599,1.98563083 14.7129273,1.98563083" id="Fill-96" fill="#FEFEFE"></path>
                <path d="M5.36601657,6.10311771 C5.76567083,6.10311771 6.28830586,5.95125097 6.48627166,5.56463249 C6.76307811,5.02427567 6.04420566,4.77067426 5.64428549,4.77067426 C5.23426096,4.77067426 4.64940431,4.94352962 4.49996605,5.37760646 C4.32526689,5.8892209 4.98045524,6.10311771 5.36601657,6.10311771" id="Fill-98" fill="#FEFEFE"></path>
            </g>
        </g>
    </g>
</svg>